# xmcd CD database file
#
# Track frame offsets:
#	150
#	1807
#	21295
#	44187
#	67990
#	111170
#	119890
#	145162
#	173507
#	191437
#	217405
#	237887
#	256232
#
# Disc length: 3737 seconds
#
# Revision: 1
# Processed by: cddbd v1.4PL0 Copyright (c) Steve Scherf et al.
# Submitted via: CDex 1.51
#
DISCID=be0e970d
DTITLE=Jan Johansson - Longing
DYEAR=1993
DGENRE=Jazz
TTITLE0=Fanfar
TTITLE1=Vals fr[n Sverige
TTITLE2=Måndag kväll
TTITLE3=Fem spelor
TTITLE4=A+B
TTITLE5=Q R T
TTITLE6=Generalen kommer hem
TTITLE7=Den korta fristen
TTITLE8=Het sommar
TTITLE9=Hej blues
TTITLE10=Vaggvisa
TTITLE11=Tionde Augusti
TTITLE12=Längtan
EXTD=YEAR: 1993
EXTT0=
EXTT1=
EXTT2=
EXTT3=
EXTT4=
EXTT5=
EXTT6=
EXTT7=
EXTT8=
EXTT9=
EXTT10=
EXTT11=
EXTT12=
PLAYORDER=
